<svg width="120" height="60" viewBox="0 0 120 60" fill="none" xmlns="http://www.w3.org/2000/svg">
  <path d="M20 15H40C45.5228 15 50 19.4772 50 25V35C50 40.5228 45.5228 45 40 45H20C14.4772 45 10 40.5228 10 35V25C10 19.4772 14.4772 15 20 15Z" fill="#0052CC"/>
  <path d="M25 25H35V35H25V25Z" fill="white"/>
  <path d="M58 20H62V40H58V20Z" fill="#0052CC"/>
  <path d="M68 20H80C83.3137 20 86 22.6863 86 26V26C86 29.3137 83.3137 32 80 32H68V20Z" fill="#0052CC"/>
  <path d="M68 32H80C83.3137 32 86 34.6863 86 38V38C86 41.3137 83.3137 44 80 44H68V32Z" fill="#0052CC"/>
  <path d="M92 20H104C107.314 20 110 22.6863 110 26V34C110 37.3137 107.314 40 104 40H92V20Z" fill="#0052CC"/>
  <path d="M96 24H104V36H96V24Z" fill="white"/>
</svg> 