<svg viewBox="0 0 200 200" xmlns="http://www.w3.org/2000/svg">
  <!-- 渐变定义 -->
  <defs>
    <linearGradient id="blueGradient" x1="0%" y1="0%" x2="100%" y2="100%">
      <stop offset="0%" stop-color="#1a365d" />
      <stop offset="100%" stop-color="#0052CC" />
    </linearGradient>
  </defs>
  
  <!-- 圆角正方形背景 -->
  <rect x="20" y="20" width="160" height="160" rx="25" ry="25" fill="url(#blueGradient)" />
  
  <!-- B字母主元素 - 扁平化设计 -->
  <path d="M70 50 H120 C135 50 145 60 145 75 C145 85 140 93 130 97 C140 100 150 110 150 125 C150 140 135 150 120 150 H70 V50 Z" 
        fill="white" fill-opacity="0.95" />
  
  <!-- B字母内部切割 -->
  <path d="M90 70 H115 C120 70 125 75 125 80 C125 85 120 90 115 90 H90 V70 Z" 
        fill="url(#blueGradient)" />
  <path d="M90 110 H120 C125 110 130 115 130 120 C130 125 125 130 120 130 H90 V110 Z" 
        fill="url(#blueGradient)" />
  
  <!-- 知识库相关设计元素 - 抽象的连接线和节点 -->
  <circle cx="50" cy="65" r="8" fill="white" fill-opacity="0.7" />
  <circle cx="40" cy="100" r="6" fill="white" fill-opacity="0.5" />
  <circle cx="50" cy="135" r="8" fill="white" fill-opacity="0.7" />
  
  <!-- 连接线 -->
  <path d="M50 73 L40 94" stroke="white" stroke-width="2" stroke-opacity="0.5" />
  <path d="M40 106 L50 127" stroke="white" stroke-width="2" stroke-opacity="0.5" />
</svg>